<svg id="Capa_1" enable-background="new 0 0 512 512" style="fill:#5069a6;" height="512" viewBox="0 0 512 512" width="512" xmlns="http://www.w3.org/2000/svg"><path d="m471.158 467.533c-2.576-10.611-8.238-20.001-16.258-27.161 10.707-11.031 16.593-25.535 16.593-40.943 0-8.055-6.553-14.608-14.608-14.608h-56.967c-20.136 0-37.527 11.939-45.494 29.105l-43.458-16.546c-2.488-.947-4.378 2.327-2.314 4.008l32.015 26.07h-59.097v-5c0-4.142-3.358-7.499-7.499-7.499s-7.499 3.358-7.499 7.499v5h-17v-12.038c0-5.953 2.443-11.444 6.703-15.063 8.829-7.502 13.893-18.442 13.893-30.016v-22.516c10.791 5.187 22.875 8.098 35.627 8.098 44.704 0 81.192-35.742 82.451-80.147h12.124c11.727 0 21.267-9.54 21.267-21.267v-1.139c0-8.565-6.968-15.533-15.533-15.533h-1.923v-72.258c0-8.472-6.882-15.365-15.349-15.387v-5.525c11.745-3.392 20.362-14.232 20.362-27.055 0-14.546-6.665-21.27-12.021-26.672-3.211-3.239-5.747-5.798-7.114-9.976-.66-2.017-.227-4.032.231-6.164.58-2.696 1.455-6.772-1.413-10.321-1.266-1.568-3.656-3.436-7.846-3.436-3.541 0-8.931 1.348-14.497 7.768-9.977 11.507-15.946 33.41-13.589 49.864 1.885 13.163 10.078 23.044 20.889 26.102v5.413h-1.011c-8.486 0-15.389 6.904-15.389 15.39v72.258h-1.923c-8.565 0-15.533 6.968-15.533 15.533v1.139c0 11.727 9.54 21.267 21.267 21.267h12.004c-1.252 36.134-31.019 65.148-67.453 65.148-37.227 0-67.512-30.286-67.512-67.513v-23.242-33.871h12.064c11.727 0 21.267-9.54 21.267-21.267v-1.138c0-8.565-6.968-15.533-15.533-15.533h-2.203v-73.824c0-8.472-6.882-15.365-15.349-15.387v-5.525c11.745-3.392 20.362-14.232 20.362-27.055 0-14.546-6.665-21.27-12.021-26.672-3.211-3.239-5.747-5.798-7.114-9.976-.66-2.017-.227-4.031.231-6.164.58-2.696 1.455-6.771-1.413-10.321-1.267-1.569-3.656-3.437-7.846-3.437-8.879 0-17.282 8.163-23.056 22.397-1.556 3.838.293 8.211 4.131 9.768 3.836 1.556 8.211-.293 9.768-4.131 1.051-2.592 2.135-4.729 3.176-6.471.17.978.415 1.988.753 3.022 2.47 7.553 7.043 12.166 10.718 15.872 4.622 4.662 7.674 7.741 7.674 16.113 0 4.337-2.118 8.18-5.364 10.579v-.913c0-4.142-3.358-7.499-7.499-7.499-4.142 0-7.499 3.358-7.499 7.499v1.018c-3.516-2.793-5.433-7.495-6.042-11.747-.587-4.1-4.384-6.952-8.487-6.36-4.1.587-6.948 4.387-6.36 8.487 1.885 13.163 10.078 23.044 20.889 26.102v5.413h-1.012c-8.485 0-15.389 6.904-15.389 15.39v73.824h-1.643c-8.565 0-15.533 6.968-15.533 15.533v1.138c0 11.727 9.54 21.267 21.267 21.267h12.064v33.871 23.242c0 37.227-30.286 67.513-67.513 67.513-36.434 0-66.201-29.014-67.453-65.148h12.579c11.727 0 21.267-9.54 21.267-21.267v-1.139c0-8.565-6.968-15.533-15.533-15.533h-2.498v-72.258c0-8.472-6.882-15.365-15.348-15.387v-5.525c11.745-3.392 20.362-14.232 20.362-27.055 0-14.546-6.665-21.27-12.021-26.672-3.211-3.239-5.747-5.797-7.114-9.976-.66-2.017-.227-4.031.231-6.164.58-2.696 1.455-6.771-1.413-10.321-1.266-1.568-3.656-3.436-7.846-3.436-3.541 0-8.931 1.348-14.497 7.768-9.977 11.508-15.946 33.411-13.59 49.865 1.885 13.163 10.078 23.044 20.889 26.102v5.413h-1.012c-8.486 0-15.389 6.904-15.389 15.39v43.177c0 4.142 3.358 7.499 7.499 7.499s7.499-3.358 7.499-7.499v-43.177c0-.216.175-.391.391-.391h15.969c.216 0 .391.175.391.391v72.258h-33.096c-8.565 0-15.533 6.968-15.533 15.533v1.139c0 11.727 9.54 21.267 21.267 21.267h11.549c1.259 44.405 37.748 80.147 82.451 80.147 12.752 0 24.836-2.91 35.627-8.098v22.515c0 11.946 5.334 23.11 14.636 30.629 4.519 3.653 7.111 9.273 7.111 15.419v11.068h-73.499v-5c0-4.142-3.358-7.499-7.499-7.499-4.142 0-7.499 3.358-7.499 7.499v5h-68.423c-4.142 0-7.499 3.358-7.499 7.499s3.358 7.499 7.499 7.499h112.141v5.78c0 4.142 3.358 7.499 7.499 7.499 4.142 0 7.499-3.358 7.499-7.499v-5.78h29.781v27.915h-25.059c-14.629 0-26.53 11.902-26.53 26.531v1.322c0 7.597 6.181 13.777 13.777 13.777h110.901c7.597 0 13.777-6.181 13.777-13.777v-1.322c0-14.629-11.902-26.531-26.531-26.531h-23.909v-27.915h91.095l-32.015 26.07c-2.064 1.681-.174 4.955 2.314 4.008l43.458-16.546c7.967 17.165 25.358 29.104 45.494 29.104h57.664c7.671 0 13.911-6.24 13.911-13.911 0-.587-.041-1.174-.124-1.769.009-.623-.06-1.253-.212-1.882zm-103.365-350.983c-1.153-8.05.371-18.314 4.075-27.455 1.054-2.6 2.14-4.743 3.184-6.489.17.978.415 1.988.753 3.022 2.471 7.552 7.044 12.165 10.718 15.871 4.622 4.662 7.674 7.742 7.674 16.114 0 4.337-2.118 8.18-5.364 10.579v-.913c0-4.142-3.358-7.499-7.499-7.499s-7.499 3.358-7.499 7.499v1.018c-3.516-2.793-5.433-7.495-6.042-11.747zm4.64 49.031c0-.216.175-.391.391-.391h15.969c.216 0 .391.175.391.391v72.258h-16.751zm-17.456 88.928c-.268-.742-.09-1.3.534-1.673h50.594c.624.373.802.93.534 1.673 0 3.456-2.812 6.268-6.268 6.268h-39.126c-3.455.001-6.268-2.811-6.268-6.268zm-132.848-149.972c0-.216.175-.391.391-.391h15.97c.216 0 .391.175.391.391v73.824h-16.751v-73.824zm-17.175 90.495c-.268-.742-.09-1.3.534-1.672h50.594c.624.373.802.93.534 1.672 0 3.456-2.812 6.268-6.268 6.268h-39.126c-3.456.001-6.268-2.812-6.268-6.268zm-137.209-78.482c-1.153-8.05.371-18.313 4.075-27.455 1.054-2.6 2.14-4.744 3.184-6.49.17.978.415 1.988.753 3.022 2.47 7.553 7.043 12.166 10.717 15.872 4.622 4.662 7.674 7.742 7.674 16.114 0 4.337-2.118 8.179-5.363 10.579v-.913c0-4.142-3.358-7.499-7.499-7.499s-7.499 3.358-7.499 7.499v1.018c-3.516-2.793-5.433-7.495-6.042-11.747zm-12.241 137.959c-.268-.742-.09-1.3.534-1.673h50.594c.624.373.802.93.534 1.673 0 3.456-2.812 6.268-6.268 6.268h-39.125c-3.456.001-6.269-2.811-6.269-6.268zm229.511 242.392v.101h-108.46v-.101c0-6.359 5.173-11.532 11.532-11.532h85.395c6.359 0 11.533 5.173 11.533 11.532zm-56.87-26.531v-53.982c0-10.697-4.622-20.568-12.68-27.083-5.762-4.658-9.066-11.571-9.066-18.965v-31.845c10.407-8.114 18.821-18.657 24.387-30.779 5.566 12.121 13.979 22.665 24.386 30.779v31.845c0 7.165-3.137 13.939-8.606 18.586-7.62 6.474-11.99 16.131-11.99 26.493v54.95h-6.431zm213.085-.278c.033-.725.017-4.698-.079-5.944-.318-4.129-3.926-7.219-8.053-6.901-4.129.318-7.219 3.924-6.901 8.053.067.864.097 3.778.09 4.792h-26.367c-19.374 0-35.137-15.762-35.137-35.136 0-4.568.886-8.931 2.479-12.939 17.702.669 34.089 6.869 45.348 17.244 3.046 2.806 7.79 2.612 10.597-.434 2.806-3.046 2.613-7.79-.434-10.597-11.72-10.799-27.737-17.904-45.244-20.332 6.084-5.043 13.889-8.08 22.391-8.08h56.575c-.1 11.556-4.647 22.405-12.829 30.587l-5.463 5.462c-1.617 1.617-2.407 3.883-2.148 6.155.26 2.272 1.541 4.301 3.481 5.511 8.08 5.041 14.099 13.056 16.682 22.149.005.137.015.273.027.41z"/></svg>